<svg width="128" height="642" viewBox="0 0 128 642" fill="none" xmlns="http://www.w3.org/2000/svg">
<path fill-rule="evenodd" clip-rule="evenodd" d="M101.258 61.6175C101.258 84.7074 87.0456 103.428 69.5186 103.428C51.9887 103.428 37.779 84.7074 37.779 61.6175C37.779 38.5276 51.9887 19.8068 69.5186 19.8068C87.0456 19.8068 101.258 38.5276 101.258 61.6175V61.6175Z" fill="#FFA400"/>
<path fill-rule="evenodd" clip-rule="evenodd" d="M44.8492 64.5666L46.4466 67.0645C45.7479 66.3483 45.2522 65.4977 44.8492 64.5666ZM50.5491 39.1907C50.5014 39.1728 50.4506 39.1579 50.4058 39.137L48.883 43.3449C49.5668 42.0109 50.1013 40.6172 50.5491 39.1907ZM41.0482 57.5265C40.8481 59.5857 40.9825 61.636 41.2154 63.6832C40.4958 62.1284 40.4719 59.2276 41.0482 57.5265ZM83.0591 31.9954C82.9098 31.8761 82.7754 31.7776 82.65 31.6701C81.8528 30.9837 81.0795 30.2675 80.2614 29.6109C78.7684 28.4202 77.1322 27.4503 75.3884 26.6654C72.0497 25.1639 68.4042 24.4687 64.7469 24.636C64.1497 24.6599 63.5316 24.6569 62.9583 24.8867C62.1999 25.1941 61.4505 25.5254 60.6981 25.8566C60.2813 26.0584 59.9257 26.3674 59.6679 26.7519C58.562 28.2495 57.6426 29.8759 56.9299 31.5955C56.282 33.1205 55.6938 34.6754 55.0847 36.2153C55.0548 36.2899 55.0608 36.3765 55.0458 36.469C55.1832 36.5287 55.2996 36.5824 55.4221 36.6242C56.3298 36.9524 57.2434 37.2538 58.1452 37.609C58.6617 37.806 59.1305 37.8328 59.6829 37.6806C61.5012 37.1912 63.3704 37.0479 65.2425 36.9912C67.5386 36.9196 69.8258 37.0211 72.101 37.2777C73.2655 37.409 74.421 37.5463 75.5706 37.7373C77.0187 37.9761 78.4639 38.2566 79.9001 38.555C80.9421 38.7729 81.9902 39.0027 83.0054 39.3011C84.2982 39.6861 85.5732 39.7309 86.878 39.3817C87.6125 39.1786 88.357 39.0132 89.1084 38.8863C90.8193 38.6272 92.5518 38.5412 94.2799 38.6296C94.4262 38.6356 94.5755 38.6058 94.7517 38.5879C94.6979 38.4177 94.6741 38.3073 94.6323 38.1999C93.2405 34.6833 90.7032 31.7383 87.4304 29.8407C86.9856 29.5722 86.4871 29.4051 85.9703 29.3513C85.4883 29.2854 84.9979 29.3741 84.5697 29.6047C84.1414 29.8354 83.7975 30.196 83.5876 30.6346C83.3875 31.0434 83.2532 31.4851 83.0561 31.9954H83.0591ZM91.8793 74.4985C92.0316 74.2866 92.163 74.1165 92.2734 73.9345C93.3364 72.1976 94.2351 70.3771 94.9756 68.4791C95.6799 66.7081 96.1982 64.8689 96.5223 62.9909C96.8607 61.1443 96.9291 59.2584 96.7253 57.3922C96.6567 56.8491 96.5969 56.3029 96.5223 55.7628C96.4715 55.4047 96.4238 55.3748 96.0804 55.4047C94.8741 55.5121 93.6917 55.3957 92.5302 55.0674C91.739 54.8406 90.9627 54.5601 90.2849 54.0796C89.2816 53.3693 88.6874 52.3547 88.2694 51.2296C87.6364 49.5344 87.3946 47.7677 87.3139 45.9741C87.2841 45.428 87.2781 44.8759 87.2273 44.3327C87.1348 43.2972 86.5854 42.563 85.6628 42.1064C85.3544 41.9389 84.995 41.8911 84.6535 41.9721C84.3348 42.0577 84.0208 42.1603 83.713 42.2795C83.3666 42.4138 83.1278 42.6287 83.1606 43.0554C83.1755 43.2046 83.1128 43.3658 83.0979 43.524C82.9181 45.3364 82.4441 47.1074 81.6946 48.7675C81.0436 50.2 80.1718 51.4773 78.9894 52.5277C77.4248 53.9214 75.5855 54.7869 73.5969 55.3539C72.3757 55.7031 71.1336 55.9209 69.8557 55.9866C68.6057 56.0686 67.3504 55.9904 66.1204 55.7538C64.6185 55.4464 63.3943 54.7332 62.5105 53.435C61.6307 52.1111 61.0218 50.6262 60.719 49.0659C60.4144 47.6066 60.3308 46.1233 60.2382 44.6401C60.2024 44.094 60.1964 43.5359 60.068 43.0107C59.874 42.2138 59.4709 41.5065 58.6199 41.2648C56.9837 40.8052 55.3355 40.3874 53.6932 39.9517C53.3618 39.8681 53.3588 39.8741 53.1827 40.1696C52.7049 40.9604 52.2272 41.7483 51.7584 42.5421C51.6733 42.6922 51.608 42.8527 51.5643 43.0196C51.3852 43.6463 51.2329 44.273 51.0478 44.8968C50.582 46.4606 50.0565 48.0005 49.2802 49.4449C48.9308 50.0955 48.5337 50.7133 48.0171 51.2475C47.6624 51.6489 47.2004 51.9409 46.6855 52.089C46.5063 52.1338 46.3272 52.1756 46.1032 52.0353L46.3719 51.8652C46.5869 51.725 46.8198 51.6026 47.0199 51.4414C47.6887 50.9102 48.1306 50.2 48.5158 49.4539C49.1966 48.1408 49.6176 46.7292 49.9609 45.2967C49.9878 45.1892 49.9997 45.0818 50.0206 44.9744C49.8378 45.0652 49.6753 45.1921 49.5429 45.3474C48.8677 46.0798 48.1057 46.7272 47.2737 47.2753C47.0453 47.4246 46.8592 47.6302 46.7332 47.8722C46.0554 49.1107 45.3597 50.3402 44.6879 51.5817C44.5781 51.782 44.5206 52.0068 44.5207 52.2353C44.5446 53.0828 44.5745 53.9364 44.6581 54.7809C44.8193 56.4044 45.1388 58.004 45.6135 59.5678C46.2644 61.6986 47.1751 63.722 48.3217 65.635C48.9577 66.7034 49.6534 67.7211 50.5402 68.6044C51.3046 69.3684 52.0331 70.1712 52.7617 70.968C53.0274 71.2605 53.317 71.5022 53.6723 71.6753C54.0754 71.8723 54.4666 72.0931 54.8458 72.3259C55.8341 72.9317 56.7567 73.6181 57.3629 74.6447C57.5149 74.9052 57.7538 75.1038 58.0377 75.2058C59.6679 75.8653 61.2982 76.5189 62.9106 77.2172C64.8424 78.0558 66.7205 79.0019 68.4792 80.1688C69.2018 80.6463 69.8885 81.1715 70.4857 81.8072C70.8716 82.1794 71.1483 82.65 71.2859 83.168C71.3307 83.3471 71.3725 83.5381 71.1694 83.7172C71.0918 83.6485 71.0022 83.5829 70.9276 83.5083C70.6887 83.2606 70.4618 82.992 70.211 82.7622C69.0346 81.6729 67.6849 80.8522 66.2697 80.124C64.3647 79.1511 62.3582 78.4229 60.3159 77.8052C59.9755 77.7037 59.6291 77.6142 59.2529 77.5097C59.2887 77.5754 59.2977 77.6082 59.3156 77.6201C59.3903 77.6649 59.4649 77.7067 59.5455 77.7395C61.0798 78.4028 62.5517 79.2018 63.9437 80.127C65.5421 81.1656 66.9728 82.4417 68.1866 83.9111C68.2791 84.0305 68.3597 84.1588 68.4463 84.2812C68.4198 84.3044 68.3939 84.3282 68.3687 84.3528C67.2534 83.3376 66.0559 82.4163 64.7887 81.5983C63.1465 80.5388 61.1937 79.5033 60.7757 79.4943C61.1579 79.7271 61.5222 79.93 61.8685 80.1598C62.8538 80.8074 63.8362 81.464 64.8126 82.1265C64.9857 82.2399 65.1201 82.407 65.2724 82.5503C65.2533 82.5826 65.2334 82.6144 65.2127 82.6458L63.7765 82.1951L63.7466 82.2817C63.869 82.3473 63.9914 82.4219 64.1139 82.4906C66.1659 83.5473 68.1005 84.8178 69.8855 86.2807C70.7723 87.0208 71.5875 87.8326 72.3041 88.7428C72.4056 88.8652 72.5429 88.9815 72.5071 89.2203C71.4441 88.7876 70.4319 88.3131 69.3451 88.0206C71.7412 90.4553 74.4681 92.5409 77.4457 94.2161C77.4965 94.0251 77.5472 93.846 77.586 93.664C77.7532 92.891 77.9145 92.1121 78.0847 91.3422C78.1175 91.1929 78.0996 91.0139 78.3385 90.9244C78.5116 91.1929 78.6968 91.4615 78.861 91.745C80.1897 94.0161 81.3572 96.3529 81.6916 99.0269C82.5575 97.1467 83.3875 95.2606 83.7458 93.1895C83.8414 93.3327 83.8951 93.476 83.934 93.6222L84.4714 95.759C84.5072 95.8903 84.561 96.0127 84.6297 96.2067C84.8118 95.9918 84.9462 95.8426 85.0686 95.6874C86.0121 94.4936 86.8183 93.2223 87.4782 91.8495C88.2455 90.2469 88.768 88.5757 88.8576 86.794C88.9233 85.5257 89.2219 84.3081 89.6638 83.1322C90.1475 81.837 90.7029 80.5687 91.2344 79.2914C91.6046 78.3961 91.9958 77.5097 92.1898 76.5607C92.3076 76.0815 92.2942 75.5795 92.151 75.1073C92.0405 74.779 91.8405 74.6209 91.4792 74.6298C90.688 74.6418 89.8967 74.6298 89.1025 74.6179C87.1975 74.588 85.2985 74.7373 83.4114 74.9462C81.6677 75.1401 79.9359 75.4505 78.2011 75.7072C77.8428 75.7579 77.4905 75.8295 77.1352 75.8624C75.86 75.9942 74.5752 76.0031 73.2983 75.8892C71.3262 75.7051 69.4111 75.1266 67.667 74.1881C65.0813 72.7855 63.1136 70.7382 61.564 68.2612C60.7428 66.9481 60.071 65.5664 59.5395 64.113C59.4918 63.9817 59.4261 63.8623 59.3514 63.7071C59.1245 63.8116 58.9394 63.8862 58.7662 63.9847C57.9809 64.4323 57.3091 65.0143 56.7209 65.6977C56.6373 65.7991 56.5865 65.9603 56.3656 65.9066C56.3656 65.7872 56.3477 65.6708 56.3716 65.5634C56.482 65.071 56.5686 64.5726 56.7299 64.0951C56.9389 63.4445 57.2822 62.8566 57.7988 62.394C58.6856 61.6002 59.7396 61.436 60.8712 61.5882C62.0297 61.7494 63.0867 62.206 64.1109 62.7402C64.1706 62.77 64.2094 62.8297 64.3468 62.9491L63.7944 62.958C63.1763 62.964 62.5553 62.958 61.9402 62.9819C61.5759 62.9968 61.5102 63.0953 61.5759 63.4505C61.6326 63.7787 61.6953 64.107 61.7849 64.4234C62.4338 66.722 63.5898 68.8462 65.1679 70.6397C66.6326 72.343 68.5263 73.6237 70.6529 74.3493C72.3791 74.9264 74.2036 75.1517 76.0185 75.0118C77.38 74.9163 78.7057 74.6925 79.9896 74.2299C82.229 73.4241 83.9399 72.0066 84.976 69.834C85.7553 68.2105 86.0061 66.4826 85.9584 64.7009C85.9524 64.4502 85.8091 64.304 85.6389 64.1697L84.1161 62.961C82.444 61.633 80.7809 60.302 79.1058 58.9799C79.0114 58.9147 78.9367 58.8248 78.8898 58.7201C78.843 58.6154 78.8258 58.4998 78.8401 58.386C78.8879 57.819 79.0222 57.2758 79.3417 56.7954C79.6373 56.3477 80.0344 56.0731 80.5988 56.0881C80.972 56.1 81.3482 56.1119 81.7214 56.0821C82.0049 56.0519 82.2848 55.995 82.5575 55.912C83.0113 55.7837 83.4532 55.5927 83.916 55.4942C85.4412 55.1732 87.0089 55.1056 88.5561 55.2942C89.3742 55.3927 90.1893 55.5091 90.9507 55.8374C91.3275 56.0212 91.7441 56.1084 92.163 56.0911C92.8228 56.0463 93.2468 56.4014 93.5424 56.9446C93.7455 57.3146 93.8291 57.7235 93.8739 58.1443C93.9036 58.3271 93.882 58.5146 93.8113 58.6859C93.7407 58.8572 93.6238 59.0054 93.4737 59.1142C91.5449 60.6959 89.6339 62.2925 87.714 63.8862C86.9556 64.5129 86.9497 64.5129 87.081 65.4858C87.4214 68.0404 88.3142 70.3712 89.8848 72.4244C90.4521 73.1705 91.0881 73.8569 91.8793 74.4985V74.4985ZM43.6817 101.31C43.822 101.605 43.9444 101.907 44.0997 102.19C44.5267 102.981 45.0641 103.694 45.6314 104.384C46.4914 105.428 47.3394 106.485 48.2052 107.559C48.1336 107.538 48.0619 107.529 47.9962 107.499C45.8391 106.434 43.7624 105.213 41.7827 103.847C40.236 102.76 38.9402 101.414 37.7578 99.952C35.8916 97.6541 34.2822 95.1771 32.7923 92.6195C31.8368 90.9751 30.9411 89.2949 30.0214 87.6326C29.9687 87.5311 29.8865 87.4479 29.7855 87.3939C29.7736 87.4983 29.7437 87.6028 29.7557 87.7013C29.8811 88.8204 30.1319 89.9156 30.4364 90.999C30.8097 92.333 31.2008 93.658 31.377 95.0368C31.3949 95.1681 31.4277 95.2964 31.4188 95.4248C31.4128 95.5053 31.3471 95.5799 31.2725 95.7292C31.174 95.5352 31.1083 95.4307 31.0635 95.3113C30.1379 92.8254 28.7285 90.62 27.0624 88.5757C25.7785 86.9999 24.4438 85.472 23.1151 83.935C22.6065 83.3655 22.1647 82.7397 21.7984 82.0698C20.6339 79.8644 19.4605 77.6619 18.6841 75.2804C18.2243 73.8569 17.8571 72.4035 17.4749 70.9531C17.1494 69.7236 16.7672 68.5209 16.1014 67.4226C15.9312 67.1391 15.7281 66.9451 15.3758 66.9899C15.0324 67.0347 14.8413 67.2436 14.7548 67.5689L14.2919 69.2252C14.2352 69.1267 14.1755 69.0521 14.1427 68.9685C13.4237 67.0221 12.7989 65.0421 12.2705 63.0356C11.957 61.8628 11.9719 60.6899 12.0406 59.5141C12.1153 58.1443 12.3153 56.7775 12.7274 55.4554C12.9591 54.6713 13.2506 53.906 13.5992 53.1664C13.8739 52.6053 14.286 52.098 14.6861 51.6086C15.552 50.5551 16.4567 49.5255 17.3435 48.4839C17.4331 48.3825 17.5137 48.281 17.5973 48.1766C17.5711 48.1461 17.5443 48.1162 17.5167 48.087L16.4507 48.7346L16.3791 48.666C17.6451 46.0696 19.132 43.5926 20.7235 41.1813C22.3413 38.7568 24.0545 36.3973 25.8591 34.1083C25.4411 34.2218 24.8141 34.8067 22.518 37.1822C21.4729 38.2626 20.5264 39.4294 19.6396 40.6471L19.565 40.6023L20.3831 38.4536C20.1681 38.4625 20.0964 38.5968 20.0069 38.6923C18.9111 39.9368 17.8003 41.1693 16.7284 42.4287C15.173 44.2666 13.6948 46.1683 12.2974 48.1288C12.2675 48.1736 12.2257 48.2124 12.1451 48.3079C12.1451 48.1736 12.1302 48.099 12.1451 48.0303C12.6139 46.2696 13.2887 44.5864 14.0859 42.951C15.3549 40.3486 16.9285 37.9373 18.702 35.6572C20.5136 33.322 22.5519 31.1718 24.7872 29.2379L25.0739 28.9723C25.1037 28.9454 25.1246 28.9096 25.1186 28.8141C24.9335 28.9036 24.7454 28.9872 24.5663 29.0827C22.5244 30.176 20.2421 30.7433 17.9257 30.7331C16.9449 30.7341 15.9685 30.6015 15.0235 30.3391C14.9996 30.3302 14.9817 30.3063 14.919 30.2496C15.3848 30.0974 15.8207 29.9661 16.2537 29.8139C17.1613 29.4886 18.075 29.1782 18.9648 28.8171C20.1233 28.3486 21.0758 27.5786 21.9089 26.6624C23.7451 24.6118 25.6368 22.6116 27.582 20.6639C29.1734 19.0971 30.7888 17.5542 32.64 16.2858C34.5659 14.9638 36.6172 13.9073 38.8655 13.2478C40.1353 12.8651 41.4466 12.6366 42.771 12.5673C42.8714 12.5625 42.9713 12.5495 43.0696 12.5285C43.1084 12.5226 43.1442 12.4957 43.2786 12.433C42.8695 12.3763 42.553 12.3256 42.2335 12.2928C40.5856 12.1488 38.9448 11.9327 37.3158 11.6452C34.7749 11.1647 32.2936 10.4813 29.9348 9.40989C28.1015 8.57427 26.3906 7.55363 24.8857 6.19873C23.9064 5.34576 23.0742 4.33751 22.4224 3.21439C22.3776 3.13381 22.3478 3.05622 22.303 2.96072C22.5359 3.04428 22.5329 3.04726 22.8404 3.34868C23.3383 3.84784 23.8722 4.30967 24.4379 4.73043C25.0043 5.15111 25.5891 5.54643 26.1906 5.91522C26.9967 6.39069 27.8291 6.82012 28.6838 7.20147C28.9107 7.30294 29.1346 7.39844 29.3615 7.49096C29.5765 7.58049 29.7915 7.65808 30.0065 7.73866C30.2215 7.82222 30.4364 7.90578 30.6544 7.98337C30.8843 8.06097 31.1202 8.13259 31.3531 8.20421C31.793 8.34592 32.2382 8.47036 32.6878 8.57726C32.9117 8.63396 33.1357 8.68768 33.3596 8.73543C33.5985 8.78915 33.8373 8.83391 34.0792 8.88465L34.757 9.01596C35.2247 9.10276 35.6959 9.16947 36.1693 9.21591C36.3902 9.2368 36.6112 9.24575 36.8321 9.26067L36.871 9.15921L36.5127 8.88166C34.7629 7.49692 33.9538 5.67349 33.9836 3.45313C34.0036 2.94574 34.1548 2.45218 34.4226 2.02065C34.6196 1.67745 34.8495 1.34618 35.0705 1C35.2646 1.13728 35.1899 1.29247 35.178 1.42079C35.1183 2.53395 35.3153 3.60534 35.6438 4.66179C36.1096 6.15994 37.1397 7.12388 38.5878 7.66405C40.0897 8.21914 41.6573 8.44893 43.2458 8.5116C44.3505 8.55637 45.4613 8.5116 46.572 8.49668C46.7109 8.49136 46.846 8.44913 46.9631 8.37432C45.1806 7.58049 43.404 6.81351 41.708 5.86449C43.1114 6.21067 44.5207 6.56879 45.93 6.90005C47.3603 7.23729 48.7994 7.51781 50.2894 7.66405C50.1311 7.57153 49.9788 7.46708 49.8176 7.3865C48.9464 6.96806 48.1132 6.47479 47.3274 5.91224L47.0856 5.71825C47.2886 5.7481 47.405 5.75407 47.5185 5.78391C48.8801 6.15397 50.2715 6.39272 51.6629 6.61953C54.1829 7.02838 56.7149 7.30593 59.2529 7.54467C60.8175 7.69389 62.3821 7.81327 63.9496 7.90876C66.5593 8.06395 69.1331 8.45192 71.6502 9.1801C74.0388 9.86948 76.3141 10.8394 78.44 12.1376C78.5893 12.2271 78.7386 12.3047 78.9386 12.3465C78.8938 12.2749 78.858 12.1913 78.8013 12.1256C78.1003 11.3788 77.2825 10.7508 76.3797 10.2664C74.8868 9.4278 73.2774 8.88763 71.6203 8.48176C69.6274 8.0172 67.6005 7.71282 65.559 7.57153C65.4784 7.56966 65.401 7.53896 65.3411 7.48499C65.4694 7.45514 65.5978 7.41635 65.7292 7.39546C67.7673 7.09833 69.8212 6.92096 71.8801 6.86424C73.8597 6.80456 75.8274 6.90304 77.7861 7.15969C79.9956 7.44619 82.1454 7.97442 84.1668 8.94433C85.5553 9.60984 86.8153 10.4604 87.8484 11.6183C87.9828 11.7675 88.138 11.8959 88.2843 12.0361C88.2336 11.5944 88.1022 11.3975 86.872 9.85157C87.29 10.1679 87.723 10.4723 88.135 10.8006C89.9595 12.2449 91.5003 14.0147 92.6795 16.0202C93.835 18.0287 94.5009 20.1834 94.6591 22.4963C94.6711 22.6693 94.6442 22.8544 94.9279 22.8902C94.9607 22.8096 95.0204 22.726 95.0264 22.6395C95.0951 21.9233 95.1578 21.204 95.2175 20.4878C95.2324 20.3087 95.2414 20.1297 95.3041 19.9417C95.522 20.2908 95.5429 20.6937 95.6564 21.0817C95.8863 20.455 95.4713 18.1869 94.8741 16.5962C94.3307 15.1652 93.546 13.8379 92.5541 12.6718C91.5568 11.49 90.3595 10.532 89.1264 9.60387C89.5742 9.85456 90.0281 10.0963 90.47 10.3619C92.2833 11.4317 93.977 12.6923 95.522 14.1222C97.4031 15.8829 98.9856 17.8616 100.081 20.2102C100.917 21.9949 101.377 23.872 101.455 25.8417C101.458 25.9804 101.484 26.1176 101.533 26.2476C101.885 24.7554 101.93 23.2394 101.98 21.7114C102.972 23.9347 103.59 26.2476 103.715 28.6828C103.841 31.124 103.473 33.4757 102.375 35.7617C102.643 35.7109 102.733 35.5707 102.831 35.4424C103.24 34.9082 103.53 34.3173 103.778 33.6995C103.832 33.552 103.907 33.4132 104.002 33.2877C104.196 35.0484 104.035 36.6988 102.596 37.9432L103.518 39.3847C103.548 39.4354 103.59 39.4802 103.602 39.5339C103.712 40.0174 104.056 40.1845 104.501 40.2621C104.868 40.3247 105.226 40.4411 105.641 40.5486C105.647 41.1335 105.686 41.7065 105.653 42.2765C105.599 43.2106 105.504 44.1417 105.405 45.0728C105.379 45.328 105.413 45.5859 105.507 45.8249C105.79 46.6247 106.065 47.4275 106.304 48.2422C106.573 49.1704 106.821 50.1045 106.925 51.0684C107.068 52.3755 107.033 53.6648 106.585 54.9093C106.417 55.3659 106.161 55.7896 105.919 56.2164C105.82 56.3895 105.74 56.5238 105.868 56.7237C105.93 56.8379 105.958 56.9673 105.949 57.0968C105.904 58.004 106.119 58.8725 106.331 59.7379C106.728 61.3734 106.913 63.0326 106.979 64.7069C107.068 67.1122 106.782 69.4818 106.313 71.8395C105.774 74.4805 105.052 77.081 104.154 79.6226C103.608 81.2024 103.044 82.7762 102.464 84.3439C102.291 84.8124 102.028 85.2511 101.807 85.7047C101.204 86.95 100.693 88.2377 100.279 89.5575C100.249 89.65 100.204 89.7366 100.129 89.9156L99.7649 89.1755C99.6186 88.8771 99.4962 88.8413 99.2544 89.08C98.7908 89.5369 98.4153 90.0751 98.1466 90.6677C97.7316 91.6048 97.3464 92.5508 96.9821 93.5088C95.101 98.4777 92.578 103.08 89.2547 107.237C87.362 109.562 85.3362 111.776 83.1875 113.868C81.4401 115.566 79.8185 117.388 78.3355 119.32C78.2578 119.422 78.1713 119.514 78.0608 119.643L77.6338 119.189C76.1216 117.644 74.5509 116.158 72.9251 114.733C71.1049 113.138 69.2013 111.639 67.2221 110.245C65.134 108.757 62.9485 107.411 60.6801 106.216C59.8888 105.798 59.041 105.496 58.1631 105.321C56.9972 105.074 55.7815 105.245 54.7293 105.804C54.2098 106.079 54.0008 106.518 54.0814 107.1L54.1292 107.398C50.1819 106.139 46.5989 104.342 43.7981 101.22L43.6847 101.31H43.6817Z" fill="#323838"/>
<path d="M27.1163 201.996C27.1163 196.002 28.0856 190.63 30.0241 185.881C31.9626 181.132 34.8316 177.318 38.631 174.437C42.4305 171.635 47.0054 170.156 52.3556 170L52.3556 191.253C49.3316 191.564 47.0054 192.615 45.377 194.406C43.8262 196.196 43.0508 198.532 43.0508 201.412C43.0508 204.37 43.7099 206.706 45.0281 208.419C46.4238 210.131 48.3235 210.988 50.7273 210.988C52.7433 210.988 54.4104 210.287 55.7286 208.886C57.0468 207.562 58.1324 205.889 58.9853 203.864C59.8382 201.918 60.8075 199.116 61.8931 195.457C63.5214 190.163 65.1497 185.842 66.7781 182.495C68.4064 179.147 70.8102 176.267 73.9893 173.854C77.1685 171.44 81.3169 170.234 86.4345 170.234C94.0334 170.234 99.9652 172.997 104.23 178.524C108.572 184.052 110.743 191.253 110.743 200.128C110.743 209.158 108.572 216.437 104.23 221.964C99.9652 227.492 93.9947 230.45 86.3182 230.839V209.236C88.9546 209.08 91.0094 208.107 92.4826 206.317C94.0334 204.526 94.8088 202.23 94.8088 199.427C94.8088 197.014 94.1497 195.067 92.8316 193.588C91.5909 192.109 89.7687 191.37 87.365 191.37C84.7286 191.37 82.6738 192.615 81.2005 195.106C79.7273 197.598 78.1377 201.49 76.4318 206.784C74.6484 212.078 72.9425 216.359 71.3142 219.629C69.6858 222.976 67.3209 225.857 64.2193 228.27C61.1177 230.683 57.1243 231.89 52.2393 231.89C47.5869 231.89 43.361 230.683 39.5615 228.27C35.762 225.935 32.738 222.509 30.4893 217.994C28.2407 213.479 27.1163 208.146 27.1163 201.996Z" fill="#323838"/>
<path d="M92.8316 308.521H27.9305L27.9305 288.553H36.7701C33.9011 286.529 31.5749 283.765 29.7915 280.262C28.0856 276.837 27.2326 273.022 27.2326 268.818C27.2326 263.836 28.3182 259.437 30.4893 255.623C32.738 251.808 35.9559 248.85 40.1431 246.748C44.3302 244.646 49.254 243.595 54.9144 243.595H92.8316L92.8316 263.446H57.5896C53.2473 263.446 49.8743 264.575 47.4706 266.833C45.0669 269.091 43.865 272.127 43.865 275.941C43.865 279.834 45.0669 282.909 47.4706 285.166C49.8743 287.424 53.2473 288.553 57.5896 288.553H92.8316V308.521Z" fill="#323838"/>
<path d="M60.4973 318.894C67.1658 318.894 73.0201 320.14 78.0602 322.631C83.1003 325.2 86.9773 328.664 89.6912 333.024C92.4051 337.383 93.762 342.249 93.762 347.62C93.762 351.902 92.8703 355.795 91.0869 359.298C89.3035 362.879 86.8997 365.681 83.8757 367.706H114L114 387.674H27.9305L27.9305 367.706H37.2353C34.1337 365.837 31.6524 363.151 29.7914 359.648C27.9305 356.223 27 352.214 27 347.62C27 342.249 28.357 337.383 31.0709 333.024C33.8623 328.664 37.7781 325.2 42.8182 322.631C47.9358 320.14 53.8289 318.894 60.4973 318.894ZM60.381 367.706C65.3436 367.706 69.2594 366.304 72.1283 363.502C74.9973 360.777 76.4318 357.429 76.4318 353.459C76.4318 349.489 74.9973 346.102 72.1283 343.3C69.3369 340.575 65.4599 339.213 60.4973 339.213C55.5348 339.213 51.5802 340.575 48.6337 343.3C45.7647 346.102 44.3302 349.489 44.3302 353.459C44.3302 357.429 45.7647 360.777 48.6337 363.502C51.5027 366.304 55.4185 367.706 60.381 367.706Z" fill="#323838"/>
<path d="M27 431.781C27 425.397 28.357 419.636 31.0709 414.498C33.7848 409.438 37.6618 405.429 42.7019 402.47C47.742 399.59 53.635 398.15 60.381 398.15C67.0495 398.15 72.9037 399.629 77.9438 402.587C83.0615 405.545 86.9773 409.594 89.6912 414.732C92.4051 419.87 93.762 425.631 93.762 432.014C93.762 438.398 92.4051 444.159 89.6912 449.297C86.9773 454.435 83.0615 458.483 77.9438 461.441C72.9037 464.399 67.0495 465.879 60.381 465.879C53.7126 465.879 47.8195 464.361 42.7019 461.324C37.6618 458.366 33.7848 454.279 31.0709 449.063C28.357 443.925 27 438.164 27 431.781ZM44.2139 431.781C44.2139 435.595 45.6096 438.826 48.4011 441.473C51.1925 444.198 55.1858 445.56 60.381 445.56C65.5762 445.56 69.5695 444.236 72.361 441.59C75.1524 439.021 76.5481 435.829 76.5481 432.014C76.5481 428.122 75.1524 424.891 72.361 422.322C69.6471 419.753 65.6537 418.468 60.381 418.468C55.1858 418.468 51.1925 419.714 48.4011 422.205C45.6096 424.774 44.2139 427.966 44.2139 431.781Z" fill="#323838"/>
<path d="M27.9305 516.292L55.1471 496.44H27.9305L27.9305 476.472H114V496.44H66.4291L92.8315 516.175V540.815L60.2647 513.723L27.9305 541.048L27.9305 516.292Z" fill="#323838"/>
<path d="M92.8315 613H27.9305L27.9305 593.032H36.77C33.9011 591.008 31.5749 588.244 29.7914 584.741C28.0856 581.315 27.2326 577.501 27.2326 573.297C27.2326 568.315 28.3182 563.916 30.4893 560.101C32.738 556.287 35.9559 553.329 40.143 551.227C44.3302 549.125 49.254 548.074 54.9144 548.074H92.8315V567.925H57.5896C53.2473 567.925 49.8743 569.054 47.4706 571.312C45.0668 573.569 43.865 576.605 43.865 580.42C43.865 584.313 45.0668 587.388 47.4706 589.645C49.8743 591.903 53.2473 593.032 57.5896 593.032H92.8315L92.8315 613Z" fill="#323838"/>
</svg>
